<svg xmlns="http://www.w3.org/2000/svg" xmlns:xlink="http://www.w3.org/1999/xlink" id="Layer_1" x="0" y="0" version="1.1" viewBox="0 0 191.7 57.3" xml:space="preserve" style="enable-background:new 0 0 191.7 57.3"><style type="text/css">.st0,.st1{fill:none;stroke:#404040;stroke-width:3;stroke-miterlimit:10}.st1{stroke-width:2}.st2{fill:#404040}</style><g><g><g><polyline points="1.5 50.1 1.5 1.5 179.5 1.5" class="st0"/><polyline points="7.5 43.5 7.5 7.7 171.4 7.7" class="st1"/></g><g><g><g><path d="M29.6,33.6c0,1.6-0.6,2.9-1.7,4.1s-2.5,1.7-4,1.7h-5.7v-24h5.7c1.6,0,2.9,0.6,4,1.7s1.7,2.5,1.7,4 C29.6,21.1,29.6,33.6,29.6,33.6z M21.9,35.8h2.2c0.6,0,1.1-0.2,1.5-0.6c0.4-0.4,0.6-0.9,0.6-1.5V21.1c0-0.6-0.2-1.1-0.6-1.5 S24.7,19,24.2,19H22v16.8H21.9z" class="st2"/><path d="M31.5,39.3v-24h10.3v3.6h-6.7v6.6H40v3.6h-4.9v6.6h6.7v3.6H31.5z" class="st2"/><path d="M47.2,39.3l-4.3-24h3.8l3,18.7l3-18.7h3.8l-4.4,24H47.2z" class="st2"/><path d="M61.9,39.3h-3.6v-24h3.6V39.3z" class="st2"/><path d="M67.8,15.3l4.8,16.2V15.3h3.6v24h-3.9l-5-15.4v15.4h-3.6v-24C63.7,15.3,67.8,15.3,67.8,15.3z" class="st2"/></g></g><g><g><path d="M110.1,15.3h3.8l-3.8,24h-3.5l-2.1-13.2l-1.9,13.2h-3.5l-4-24H99l1.9,12.9l1.7-12.9h3.8l1.9,12.9 L110.1,15.3z" class="st2"/><path d="M116.7,33.8l-0.9,5.5H112l4.1-24h5l4,24h-3.8l-0.8-5.5H116.7z M118.6,20.8l-1.3,9.5h2.7L118.6,20.8z" class="st2"/><path d="M136.7,39.3h-9.9v-24h3.6v20.4h6.3V39.3z" class="st2"/><path d="M141.5,31.7v7.6h-3.6v-24h3.6v8.6l4.4-8.6h3.9l-5,9.8l5.8,14.2h-4.3l-3.8-9.8L141.5,31.7z" class="st2"/><path d="M152.2,39.3v-24h10.3v3.6h-6.7v6.6h4.9v3.6h-4.9v6.6h6.7v3.6H152.2z" class="st2"/><path d="M169.4,15.3c2,0,3.5,0.6,4.4,1.7c0.8,1,1.2,2.3,1.2,4.1v3.5c0,1.7-0.6,3.1-1.9,4.3l2.7,10.5h-3.9l-2.2-9.1 c-0.1,0-0.2,0-0.3,0h-2.1v9.1h-3.6v-24h5.7V15.3z M171.6,21.1c0-1.4-0.7-2.1-2.1-2.1h-2.2v7.7h2.2c0.6,0,1.1-0.2,1.5-0.6 s0.6-0.9,0.6-1.5V21.1z" class="st2"/></g></g></g><g><polyline points="190.2 7.2 190.2 55.8 12.2 55.8" class="st0"/><polyline points="184.2 13.9 184.2 49.6 20.3 49.6" class="st0"/></g></g><g><g><polygon points="88.8 21.8 88.3 22.6 87.4 24 85.9 26.6 84.5 28.9 84.3 29.5 85.8 29.7 87.1 29.8 86.6 31.9 86.1 34.3 85.8 36.9 87.6 33.5 88.2 32.2 88.9 30.9 90 29.5 90.6 28.2 89.2 28 88.6 28 87.8 27.9 88.2 26.2" class="st2"/></g></g></g></svg>