<svg id="Layer_1" data-name="Layer 1" xmlns="http://www.w3.org/2000/svg" viewBox="0 0 191.7 57.3"><defs><style>.cls-1,.cls-2{fill:none;stroke:#f1f2f2;stroke-miterlimit:10;}.cls-1{stroke-width:3px;}.cls-2{stroke-width:2px;}.cls-3{fill:#f1f2f2;}</style></defs><title>logo</title><polyline class="cls-1" points="1.5 50.1 1.5 1.5 179.5 1.5"/><polyline class="cls-2" points="7.5 43.5 7.5 7.7 171.4 7.7"/><path class="cls-3" d="M29.6,33.6a5.83,5.83,0,0,1-1.7,4.1,5.23,5.23,0,0,1-4,1.7H18.2v-24h5.7a5.44,5.44,0,0,1,4,1.7,5.61,5.61,0,0,1,1.7,4Zm-7.7,2.2h2.2a2.05,2.05,0,0,0,2.1-2.1V21.1a2,2,0,0,0-.6-1.5,2,2,0,0,0-1.4-.6H22V35.8Z"/><path class="cls-3" d="M31.5,39.3v-24H41.8v3.6H35.1v6.6H40v3.6H35.1v6.6h6.7v3.6Z"/><path class="cls-3" d="M47.2,39.3l-4.3-24h3.8l3,18.7,3-18.7h3.8l-4.4,24Z"/><path class="cls-3" d="M61.9,39.3H58.3v-24h3.6Z"/><path class="cls-3" d="M67.8,15.3l4.8,16.2V15.3h3.6v24H72.3l-5-15.4V39.3H63.7v-24Z"/><path class="cls-3" d="M110.1,15.3h3.8l-3.8,24h-3.5l-2.1-13.2-1.9,13.2H99.1l-4-24H99l1.9,12.9,1.7-12.9h3.8l1.9,12.9Z"/><path class="cls-3" d="M116.7,33.8l-.9,5.5H112l4.1-24h5l4,24h-3.8l-.8-5.5Zm1.9-13-1.3,9.5H120Z"/><path class="cls-3" d="M136.7,39.3h-9.9v-24h3.6V35.7h6.3Z"/><path class="cls-3" d="M141.5,31.7v7.6h-3.6v-24h3.6v8.6l4.4-8.6h3.9l-5,9.8,5.8,14.2h-4.3l-3.8-9.8Z"/><path class="cls-3" d="M152.2,39.3v-24h10.3v3.6h-6.7v6.6h4.9v3.6h-4.9v6.6h6.7v3.6Z"/><path class="cls-3" d="M169.4,15.3a5.43,5.43,0,0,1,4.4,1.7,6.26,6.26,0,0,1,1.2,4.1v3.5a5.56,5.56,0,0,1-1.9,4.3l2.7,10.5h-3.9l-2.2-9.1h-2.4v9.1h-3.6v-24h5.7Zm2.2,5.8a1.86,1.86,0,0,0-2.1-2.1h-2.2v7.7h2.2a2.05,2.05,0,0,0,2.1-2.1Z"/><polyline class="cls-1" points="190.2 7.2 190.2 55.8 12.2 55.8"/><polyline class="cls-2" points="184.2 13.9 184.2 49.6 20.3 49.6"/><polygon class="cls-3" points="88.8 21.8 88.3 22.6 87.4 24 85.9 26.6 84.5 28.9 84.3 29.5 85.8 29.7 87.1 29.8 86.6 31.9 86.1 34.3 85.8 36.9 87.6 33.5 88.2 32.2 88.9 30.9 90 29.5 90.6 28.2 89.2 28 88.6 28 87.8 27.9 88.2 26.2 88.8 21.8"/></svg>